<?xml version="1.0" encoding="UTF-8"?>
<svg xmlns="http://www.w3.org/2000/svg" xmlns:xlink="http://www.w3.org/1999/xlink" width="375pt" height="374.999991pt" viewBox="0 0 375 374.999991" version="1.2">
<defs>
<clipPath id="clip1">
  <path d="M 58.9375 58.9375 L 316.1875 58.9375 L 316.1875 316.1875 L 58.9375 316.1875 Z M 58.9375 58.9375 "/>
</clipPath>
</defs>
<g id="surface1">
<g clip-path="url(#clip1)" clip-rule="nonzero">
<path style=" stroke:none;fill-rule:nonzero;fill:rgb(0%,0%,0%);fill-opacity:1;" d="M 308.207031 142.691406 C 292.496094 100.679688 255.433594 69.035156 210.292969 60.976562 C 209.839844 60.832031 209.382812 60.761719 208.921875 60.730469 C 201.992188 59.570312 194.882812 58.9375 187.625 58.9375 C 148.339844 58.9375 113.128906 76.652344 89.503906 104.492188 C 88.992188 104.914062 88.574219 105.414062 88.242188 105.964844 C 69.941406 128.199219 58.9375 156.648438 58.9375 187.625 C 58.9375 203.195312 61.71875 218.121094 66.808594 231.945312 C 66.878906 232.15625 66.957031 232.363281 67.050781 232.5625 C 82.769531 274.613281 119.886719 306.273438 165.085938 314.300781 C 165.398438 314.394531 165.714844 314.429688 166.035156 314.46875 C 173.058594 315.660156 180.265625 316.316406 187.625 316.316406 C 226.914062 316.316406 262.125 298.601562 285.746094 270.761719 C 286.265625 270.335938 286.6875 269.832031 287.019531 269.28125 C 305.316406 247.050781 316.316406 218.601562 316.316406 187.625 C 316.316406 172.058594 313.535156 157.128906 308.445312 143.304688 C 308.375 143.09375 308.300781 142.886719 308.207031 142.691406 Z M 92.480469 119.234375 L 98.757812 130.109375 C 99.816406 131.945312 101.738281 132.96875 103.714844 132.96875 C 104.683594 132.96875 105.671875 132.726562 106.570312 132.203125 C 109.304688 130.621094 110.242188 127.121094 108.660156 124.386719 L 100.15625 109.65625 C 121.644531 85.574219 152.890625 70.375 187.625 70.375 C 191.574219 70.375 195.472656 70.578125 199.320312 70.960938 L 187.816406 90.886719 C 186.238281 93.625 187.175781 97.121094 189.910156 98.699219 C 190.8125 99.21875 191.796875 99.46875 192.765625 99.46875 C 194.742188 99.46875 196.664062 98.441406 197.722656 96.609375 L 211.457031 72.820312 C 248.523438 80.503906 279.210938 105.75 294.464844 139.425781 L 187.625 139.425781 C 181.902344 139.425781 176.433594 140.480469 171.335938 142.320312 L 188.949219 111.8125 C 190.527344 109.078125 189.589844 105.578125 186.855469 104 C 184.113281 102.414062 180.621094 103.359375 179.042969 106.09375 L 145.875 163.523438 C 145.800781 163.660156 145.757812 163.800781 145.691406 163.9375 C 143.070312 168.558594 141.199219 173.652344 140.226562 179.0625 L 116.433594 137.851562 C 114.851562 135.117188 111.363281 134.171875 108.621094 135.757812 C 105.886719 137.335938 104.949219 140.835938 106.527344 143.570312 L 145.878906 211.730469 L 145.929688 211.699219 C 148.71875 216.515625 152.300781 220.8125 156.523438 224.390625 L 76.3125 224.390625 C 72.480469 212.820312 70.375 200.46875 70.375 187.625 C 70.375 162.117188 78.589844 138.5 92.480469 119.234375 Z M 224.390625 187.625 C 224.390625 207.898438 207.898438 224.390625 187.625 224.390625 C 167.355469 224.390625 150.863281 207.898438 150.863281 187.625 C 150.863281 167.355469 167.355469 150.863281 187.625 150.863281 C 207.898438 150.863281 224.390625 167.355469 224.390625 187.625 Z M 282.777344 256.019531 L 259.144531 215.089844 C 257.566406 212.355469 254.066406 211.410156 251.332031 213 C 248.597656 214.578125 247.660156 218.074219 249.238281 220.8125 L 275.097656 265.597656 C 253.605469 289.675781 222.363281 304.875 187.625 304.875 C 183.679688 304.875 179.78125 304.675781 175.933594 304.289062 L 189.066406 281.542969 C 190.644531 278.808594 189.707031 275.308594 186.972656 273.730469 C 184.226562 272.144531 180.738281 273.085938 179.160156 275.824219 L 163.796875 302.433594 C 126.726562 294.753906 96.042969 269.507812 80.785156 235.832031 L 187.625 235.832031 C 193.351562 235.832031 198.824219 234.777344 203.921875 232.9375 L 187.160156 261.964844 C 185.582031 264.703125 186.519531 268.199219 189.253906 269.777344 C 190.15625 270.300781 191.136719 270.546875 192.109375 270.546875 C 194.082031 270.546875 196.003906 269.523438 197.066406 267.6875 L 229.375 211.730469 C 229.449219 211.597656 229.492188 211.457031 229.558594 211.320312 C 232.183594 206.695312 234.050781 201.601562 235.023438 196.195312 L 241.757812 207.855469 C 242.816406 209.691406 244.738281 210.714844 246.714844 210.714844 C 247.683594 210.714844 248.671875 210.46875 249.570312 209.945312 C 252.304688 208.367188 253.242188 204.871094 251.664062 202.132812 L 229.371094 163.523438 C 229.25 163.3125 229.097656 163.132812 228.953125 162.945312 C 226.214844 158.375 222.769531 154.285156 218.726562 150.859375 L 298.933594 150.859375 C 302.773438 162.433594 304.875 174.785156 304.875 187.625 C 304.875 213.136719 296.664062 236.75 282.777344 256.019531 Z M 282.777344 256.019531 "/>
</g>
</g>
</svg>
