<?xml version="1.0" encoding="UTF-8"?>
<svg xmlns="http://www.w3.org/2000/svg" width="512" height="512" viewBox="0 0 512 512"><path d="M464,424a24.031,24.031,0,0,0-22.62,16H395.31l-39.27-39.28a175.841,175.841,0,0,0,0-289.44L395.31,72h46.07a24,24,0,1,0,0-16H392a8.008,8.008,0,0,0-5.66,2.34l-44.22,44.22A174.777,174.777,0,0,0,264,80.19V54.62a24,24,0,1,0-16,0V80.19a174.777,174.777,0,0,0-78.12,22.37L125.66,58.34A8.008,8.008,0,0,0,120,56H70.62a24,24,0,1,0,0,16h46.07l39.27,39.28a175.841,175.841,0,0,0,0,289.44L116.69,440H70.62a24,24,0,1,0,0,16H120a8.008,8.008,0,0,0,5.66-2.34l44.22-44.22A174.777,174.777,0,0,0,248,431.81v25.57a24,24,0,1,0,16,0V431.81a174.777,174.777,0,0,0,78.12-22.37l44.22,44.22A8.008,8.008,0,0,0,392,456h49.38A24,24,0,1,0,464,424Zm0-368a8,8,0,1,1-8,8A8.011,8.011,0,0,1,464,56ZM48,72a8,8,0,1,1,8-8A8.011,8.011,0,0,1,48,72Zm0,384a8,8,0,1,1,8-8A8.011,8.011,0,0,1,48,456ZM383.79,352.17a188.335,188.335,0,0,0-34.83-16.67A277.945,277.945,0,0,0,359.89,264H415.8A159.094,159.094,0,0,1,383.79,352.17Zm0-192.34A159.094,159.094,0,0,1,415.8,248H359.89a277.945,277.945,0,0,0-10.93-71.5A188.335,188.335,0,0,0,383.79,159.83ZM373.4,147.42a174.25,174.25,0,0,1-29.5,13.93,192.488,192.488,0,0,0-13.07-28.11,138.21,138.21,0,0,0-20.43-27.71A160.55,160.55,0,0,1,373.4,147.42ZM264,248V191.89a280.577,280.577,0,0,0,69.76-10.45A262.473,262.473,0,0,1,343.89,248Zm79.89,16a262.473,262.473,0,0,1-10.13,66.56A280.577,280.577,0,0,0,264,320.11V264ZM316.94,141.17a177.45,177.45,0,0,1,11.74,25.12A264.656,264.656,0,0,1,264,175.88V96.68C283.71,99.99,302.26,115.5,316.94,141.17ZM248,96.68v79.2a264.656,264.656,0,0,1-64.68-9.59,177.45,177.45,0,0,1,11.74-25.12C209.74,115.5,228.29,99.99,248,96.68ZM168.11,248a262.473,262.473,0,0,1,10.13-66.56A280.577,280.577,0,0,0,248,191.89V248ZM248,264v56.11a280.577,280.577,0,0,0-69.76,10.45A262.473,262.473,0,0,1,168.11,264ZM201.6,105.53a138.21,138.21,0,0,0-20.43,27.71,192.488,192.488,0,0,0-13.07,28.11,174.25,174.25,0,0,1-29.5-13.93A160.55,160.55,0,0,1,201.6,105.53Zm-73.39,54.3a188.335,188.335,0,0,0,34.83,16.67A277.945,277.945,0,0,0,152.11,248H96.2A159.094,159.094,0,0,1,128.21,159.83Zm0,192.34A159.094,159.094,0,0,1,96.2,264h55.91a277.945,277.945,0,0,0,10.93,71.5A188.335,188.335,0,0,0,128.21,352.17Zm10.39,12.41a174.25,174.25,0,0,1,29.5-13.93,192.488,192.488,0,0,0,13.07,28.11,138.21,138.21,0,0,0,20.43,27.71A160.55,160.55,0,0,1,138.6,364.58Zm56.46,6.25a177.45,177.45,0,0,1-11.74-25.12A264.656,264.656,0,0,1,248,336.12v79.2C228.29,412.01,209.74,396.5,195.06,370.83ZM256,488a8,8,0,1,1,8-8A8.011,8.011,0,0,1,256,488Zm0-448a8,8,0,1,1,8-8A8.011,8.011,0,0,1,256,40Zm8,375.32v-79.2a264.656,264.656,0,0,1,64.68,9.59,177.45,177.45,0,0,1-11.74,25.12C302.26,396.5,283.71,412.01,264,415.32Zm46.4-8.85a138.21,138.21,0,0,0,20.43-27.71,192.488,192.488,0,0,0,13.07-28.11,174.25,174.25,0,0,1,29.5,13.93A160.55,160.55,0,0,1,310.4,406.47ZM464,456a8,8,0,1,1,8-8A8.011,8.011,0,0,1,464,456Z"/></svg>
